<svg xmlns="http://www.w3.org/2000/svg" width="32" height="32"><path d="M6.667 18.893c.61 0 1.106.496 1.106 1.107v4.227H12c.61 0 1.107.496 1.107 1.106S12.61 26.44 12 26.44H7.773v4.227c0 .61-.496 1.106-1.106 1.106s-1.107-.496-1.107-1.106V26.44H1.333c-.61 0-1.106-.496-1.106-1.107 0-.61.496-1.106 1.106-1.106H5.56V20c0-.61.496-1.107 1.107-1.107m12.68-16c.3 0 .538-.001.768.024 1.116.128 2.117.747 2.732 1.688.125.194.23.408.365.678l.045.09.031.062.005.009c.038.068.11.112.187.116h.079c.392 0 .641 0 .86.015 3.226.209 5.797 2.78 6.006 6.008.015.217.015.466.015.858v7.026c0 1.474 0 2.648-.076 3.593-.079.957-.243 1.777-.625 2.53-.618 1.211-1.604 2.198-2.816 2.815-.752.383-1.572.547-2.53.626-.945.076-2.118.076-3.593.076H16c-.61 0-1.107-.496-1.107-1.107 0-.61.496-1.107 1.107-1.107h4.8c1.51 0 2.579-.001 3.412-.069.821-.067 1.319-.193 1.707-.392.796-.405 1.441-1.05 1.846-1.847.199-.388.326-.885.392-1.706.068-.834.07-1.902.07-3.412V12.44c0-.426-.002-.588-.01-.716-.137-2.117-1.825-3.805-3.942-3.942-.128-.008-.29-.01-.716-.01-.055 0-.118 0-.18-.002-.843-.039-1.607-.511-2.019-1.247-.03-.055-.059-.112-.083-.161l-.045-.091c-.159-.316-.2-.395-.24-.457-.253-.388-.668-.644-1.128-.698-.075-.008-.164-.01-.517-.01h-6.694c-.353 0-.442.002-.516.01-.461.054-.876.31-1.129.698-.04.062-.081.141-.24.457l-.045.09c-.024.05-.054.107-.084.162-.411.736-1.175 1.208-2.018 1.247-.061.002-.125.002-.18.002-.426 0-.588.002-.716.01-2.117.137-3.805 1.825-3.942 3.942-.008.128-.01.29-.01.716v4.892c0 .611-.496 1.107-1.106 1.107s-1.107-.496-1.107-1.107v-4.892c0-.392 0-.641.015-.858.209-3.228 2.78-5.799 6.008-6.008.217-.015.466-.015.858-.015h.079c.077-.004.15-.048.187-.116l.005-.01q.009-.016.03-.06l.046-.091c.135-.27.24-.484.365-.678.615-.941 1.616-1.56 2.732-1.688.23-.025.468-.024.768-.024zM16 10.227c3.557 0 6.44 2.882 6.44 6.44 0 3.557-2.883 6.44-6.44 6.44s-6.44-2.883-6.44-6.44 2.883-6.44 6.44-6.44m0 2.213c-2.335 0-4.227 1.892-4.227 4.227 0 2.334 1.892 4.226 4.227 4.226s4.227-1.892 4.227-4.226S18.335 12.44 16 12.44"/></svg>