<svg xmlns="http://www.w3.org/2000/svg" width="32" height="32"><path d="M11.333 18c3.651 0 6.012 1.056 7.447 2.082q.023.016.044.033.168.12.32.24l.073.06q.109.09.209.176.064.055.125.11.138.125.258.243c.635.63.858 1.526.858 2.422 0 1.455-1.18 2.634-2.634 2.634H4.634C3.18 26 2 24.82 2 23.366c0-.896.223-1.791.858-2.422C4.052 19.759 6.618 18 11.333 18M22 19.333c4.037 0 6.236 1.462 7.26 2.45.546.525.74 1.282.74 2.04C30 25.025 29.025 26 27.823 26H22.1c.493-.759.78-1.663.78-2.634 0-1.208-.295-2.784-1.511-3.992l-.028-.026q.321-.015.659-.015m0-10.666c2.21 0 4 1.79 4 4s-1.79 4-4 4-4-1.791-4-4 1.79-4 4-4M11.333 6C13.911 6 16 8.09 16 10.667s-2.09 4.666-4.667 4.666-4.666-2.089-4.666-4.666S8.756 6 11.333 6"/></svg>