<svg xmlns="http://www.w3.org/2000/svg" width="32" height="32"><path d="M7.845 2.679h6.786q1.03 0 1.982.394.951.394 1.679 1.122t1.123 1.68.394 1.982q0 .439-.301.759-.302.32-.741.345-.438.026-.775-.257-.334-.279-.387-.71l-.016-.351v-.008q-.04-.529-.261-1.012t-.595-.859q-.375-.376-.857-.599T14.865 4.9h-.01l-.213-.009H7.846q-.561 0-1.084.205-.522.205-.933.587t-.655.887-.285 1.066v.009l-.007.203-.001.009v16.286q0 .561.205 1.084.205.522.587.933t.887.655q.506.243 1.066.285h.009l.203.008h6.795q.561 0 1.084-.205.522-.205.933-.587t.655-.887q.243-.506.285-1.066v-.007l.016-.35q.058-.426.39-.701.336-.279.771-.253.436.025.737.34.301.316.306.752 0 .994-.37 1.919t-1.056 1.647-1.593 1.138q-.904.415-1.898.465l-.264.007H7.846q-.997 0-1.922-.37t-1.647-1.056q-.722-.687-1.138-1.593-.415-.904-.465-1.898l-.007-.264V7.856q0-.997.37-1.922t1.056-1.647q.687-.722 1.593-1.138.904-.415 1.898-.465l.229-.006zm17.069 7.11 5.428 5.428q.055.055.104.119l.083.129.059.124.039.115.027.132.01.095v.137l-.005.058-.023.133-.036.12-.036.088-.059.108-.082.118-.085.094-5.424 5.424q-.324.324-.783.324-.458 0-.782-.324t-.324-.782q0-.459.324-.783l3.111-3.112q.177-.177-.001-.354-.073-.074-.177-.074h-8.937q-.203 0-.393-.072t-.342-.208-.246-.315q-.092-.177-.117-.375l-.008-.143q.003-.975.97-1.091l.143-.008h8.93q.251 0 .251-.251 0-.104-.073-.177l-3.111-3.112q-.324-.324-.324-.782 0-.459.324-.783t.782-.324q.459 0 .783.324"/></svg>