<svg xmlns="http://www.w3.org/2000/svg" width="32" height="32"><path d="M17.884 5.884c.432-.432 1.133-.432 1.565 0l7.528 7.53c.694.691.694 1.814 0 2.507L19.45 23.45c-.432.432-1.133.432-1.565 0s-.432-1.132 0-1.565l6.11-6.11H15.2c-1.51 0-2.579 0-3.412.069-.821.066-1.319.194-1.707.392-.796.405-1.441 1.052-1.846 1.846-.199.388-.326.887-.392 1.707-.068.833-.07 1.901-.07 3.413v3.466c0 .612-.496 1.106-1.106 1.106S5.56 27.28 5.56 26.667V23.2c0-1.476 0-2.649.077-3.594.078-.958.242-1.778.624-2.53.618-1.212 1.604-2.197 2.816-2.814.752-.384 1.572-.547 2.53-.626.945-.077 2.118-.077 3.593-.077h8.795l-6.111-6.11c-.432-.433-.432-1.133 0-1.566"/></svg>